<svg xmlns="http://www.w3.org/2000/svg" viewBox="0 0 200 200"><defs><clipPath id="clip-path"><circle cx="100.01" cy="100.38" r="98.07" style="fill:none"/></clipPath></defs><g style="clip-path:url(#clip-path)"><path d="M174.41,36.33a100.88,100.88,0,0,0-7.33-7.58c-1.35-1.26-2.72-2.5-4.15-3.69-2.13-1.77-4.34-3.45-6.61-5a98.63,98.63,0,0,0-155,80.9,99.46,99.46,0,0,0,2,19.66L40.37,115l11.47-1.72,98.27-14.66L161.58,97l4.12-.61,8.71-1.3,23.67-3.53a98.21,98.21,0,0,0-23.67-55.18" style="fill:#28d1b4"/><path d="M198.33,90.38l-23.72,3.54-8.67,1.29-4.17.62-11.49,1.71L51.91,112.22h0l-11.48,1.72h0l-37,5.52A98.69,98.69,0,0,0,146.27,187a99.79,99.79,0,0,0,12.85-8.12,98.55,98.55,0,0,0,39.67-79.1c0-3.17-.17-6.31-.46-9.4" style="fill:#0157ff"/><path d="M223.2,146.64H38.05V75L223.2,76ZM230.72,47H30.53V154H230.72Z" style="fill:#fff"/></g></svg>